<?xml version="1.0" encoding="UTF-8"?>
<svg id="Layer_1" data-name="Layer 1" xmlns="http://www.w3.org/2000/svg" viewBox="0 0 233.72 309.01">
  <defs>
    <style>
      .cls-1 {
        fill: #fff;
      }

      .cls-2, .cls-3 {
        fill: #f63;
      }

      .cls-3 {
        font-family: MongolianBaiti, 'Mongolian Baiti';
        font-size: 245.82px;
        letter-spacing: -.04em;
      }
    </style>
  </defs>
  <text class="cls-3" transform="translate(14.72 255.48) scale(1.51 1)"><tspan x="0" y="0">L</tspan></text>
  <g>
    <path class="cls-2" d="m14.07,27.37c1.15-2.49,2.25-4.8,3.35-7.11,3.07-6.49,7.05-12.39,11.65-17.88C31.09-.04,34.29-.71,37.12.82c2.28,1.24,3.58,4.33,2.76,7.11-.83,2.83-1.58,5.7-2.09,8.6-1.25,7.11-.82,14.18,1.44,21.04,1.29,3.92,2.76,7.85,4.73,11.46,3.32,6.04,7.97,11.07,13.49,15.25.32.24,1.06.08,1.55-.08,5.17-1.7,10.25-3.74,15.51-5.1,7.32-1.9,14.86-2.51,22.39-1.61,5.64.68,11.35,1.4,16.79,2.93,8.98,2.52,17.24,6.72,24.75,12.37,5.51,4.15,10.2,9.09,14.66,14.3.38.44,1.31.75,1.89.63,5.26-1.1,10.28-2.75,15.06-5.35,9.48-5.16,16.57-12.55,21.41-22.07,1.67-3.29,2.68-6.94,3.83-10.48.45-1.39.39-2.94.72-4.38.59-2.6,3.22-4.72,5.61-4.66,3.08.08,5.51,1.86,6.21,4.6,1.99,7.84,2.73,15.8,2.22,23.87-.14,2.17-.44,4.33-.54,6.59-1.01,4.82-2.16,9.55-3.52,14.47-1.31,2.93-2.31,5.71-3.51,8.39-4.1,9.11-9.98,16.97-17.2,23.84-4.4,4.19-9.23,7.82-14.51,10.85-.49.28-.93,1.07-.99,1.66-.31,3.17-.16,6.42-.8,9.5-.6,2.87.1,4.52,2.3,6.48,4.97,4.43,6.71,10.25,5.49,16.83-.95,5.14-3.54,9.19-8.03,12.07-4.08,2.62-8.43,3.89-13.16,2.74-47.3-11.45-94.59-22.95-141.88-34.48-1.71-.42-3.45-1.08-4.92-2.02-6.46-4.13-9.47-10.23-8.64-17.75.87-7.87,6.03-14.3,14.38-15.99,1.94-.39,2.9-1.34,3.56-3.08,1.41-3.74,2.95-7.43,4.44-11.14-1.85-3.29-4.04-6.57-5.62-10.13-3-6.79-5.45-13.82-6.29-21.25-.56-4.94-.69-9.94-.85-14.91-.09-2.62.16-5.25.26-7.87l4.05-16.65m108.52,55.15c-4.13,16.99-8.26,33.97-12.39,50.98,15.67,3.81,31.14,7.57,46.49,11.3,1.91-13.48,0-26.38-6.01-38.51-6.02-12.16-14.99-21.7-26.94-28.47l-1.14,4.7m-83.35,12.91c-4.46,5.5-7.57,11.73-9.99,18.33,15.52,3.77,31.02,7.54,46.52,11.31,4.52-18.6,9.01-37.06,13.51-55.58-1.67.1-3.32.09-4.93.32-7.45,1.03-14.64,2.85-21.42,6.3-4.55,2.32-9.04,4.72-12.8,8.14-3.78,3.43-7.21,7.25-10.89,11.19m-16.64,29.41c-1.02-.25-2.03-.56-3.06-.73-3.09-.5-6.53,1.53-7.21,5.34-.51,2.83,1.57,6.24,4.45,6.94,46.9,11.4,93.8,22.8,140.7,34.18.6.15,1.27.19,1.87.09,3.23-.56,5.6-3.02,5.61-5.95.01-3.22-2.06-5.8-5.3-6.58-45.57-11.03-91.13-22.11-137.07-33.28m78-3.52c3.79-15.61,7.57-31.23,11.41-46.83.37-1.51.09-2.14-1.47-2.43-2.25-.42-4.5-.95-6.69-1.63-1.68-.52-2.26-.04-2.67,1.64-4.36,18.17-8.79,36.33-13.2,54.49-.12.49-.18.99-.26,1.44,3.6.87,7.07,1.72,10.62,2.58.74-3.03,1.45-5.96,2.25-9.26m72.17-26.42c-3.96,1.47-7.93,2.94-11.43,4.24,2.4,6.88,4.88,14.01,7.34,21.05,14.94-9.95,25.78-27.41,28.46-45.5-.6.71-.97,1.18-1.38,1.63-2.24,2.48-4.37,5.07-6.76,7.4-4.68,4.59-10.09,8.18-16.24,11.17M32.95,54.63c-3.65-6.7-6.03-13.86-7.5-21.35-5.74,18.57-4.28,36.43,4.42,53.22,5.47-5.18,10.96-10.38,16.37-15.5-4.98-4.53-9.56-9.92-13.29-16.38Z"/>
    <path class="cls-1" d="m122.63,82.33l1.1-4.52c11.95,6.77,20.92,16.31,26.94,28.47,6.01,12.12,7.93,25.03,6.01,38.51-15.35-3.73-30.81-7.49-46.49-11.3,4.13-17,8.26-33.99,12.43-51.16Z"/>
    <path class="cls-1" d="m39.28,95.28c3.63-3.8,7.06-7.62,10.84-11.05,3.77-3.42,8.25-5.82,12.8-8.14,6.78-3.45,13.97-5.27,21.42-6.3,1.61-.22,3.26-.22,4.93-.32-4.5,18.52-8.99,36.99-13.51,55.58-15.5-3.77-31-7.53-46.52-11.31,2.41-6.59,5.53-12.83,10.04-18.48Z"/>
    <path class="cls-1" d="m22.78,124.89c45.75,11.12,91.31,22.2,136.88,33.23,3.23.78,5.31,3.37,5.3,6.58-.01,2.93-2.38,5.4-5.61,5.95-.6.1-1.27.06-1.87-.09-46.9-11.38-93.8-22.78-140.7-34.18-2.88-.7-4.96-4.11-4.45-6.94.68-3.81,4.12-5.84,7.21-5.34,1.03.17,2.04.48,3.25.78Z"/>
    <path class="cls-1" d="m100.55,121.51c-.76,3.11-1.47,6.04-2.2,9.07-3.55-.86-7.02-1.71-10.62-2.58.08-.46.14-.96.26-1.44,4.41-18.16,8.84-36.32,13.2-54.49.4-1.67.98-2.16,2.67-1.64,2.19.68,4.43,1.21,6.69,1.63,1.56.29,1.84.93,1.47,2.43-3.84,15.6-7.62,31.22-11.46,47.02Z"/>
    <path class="cls-1" d="m172.91,94.85c6.01-2.94,11.42-6.53,16.1-11.12,2.38-2.34,4.52-4.92,6.76-7.4.4-.45.78-.92,1.38-1.63-2.69,18.09-13.52,35.55-28.46,45.5-2.45-7.04-4.94-14.17-7.34-21.05,3.5-1.3,7.47-2.77,11.56-4.29Z"/>
    <path class="cls-1" d="m33.02,54.76c3.66,6.33,8.24,11.72,13.22,16.25-5.41,5.12-10.9,10.32-16.37,15.5-8.7-16.79-10.16-34.65-4.42-53.22,1.47,7.49,3.86,14.65,7.57,21.48Z"/>
  </g>
</svg>